/* XPM */
static char *coin_41699283834[] = {
/* columns rows colors chars-per-pixel */
"32 32 9 1 ",
"  c #FFAE00",
". c #FFD800",
"X c #FFF000",
"o c #A49D74",
"O c #BBB386",
"+ c #C5BD8E",
"@ c #CDC391",
"# c #DED498",
"$ c #DAD4B6",
/* pixels */
"++OO$@+@++OO$O+@++OO$@+@++OO$O+@",
"+#@OOOo+###+OOoO+#@OOOo+###+OOoO",
"O+O##O@@O#@@+OO@O+O##O@@O#@@+OO@",
"+@++#@+@+@@+@@+#+@++#@+@+@@+@@+#",
"+@Oo++#+OO+o+O##+@Oo++#+OO+o+O##",
"$OOO+##O$OO+#OOO$OOO+##O$OO+#OOO",
"@O+@@@##@@+##+O+@O+@@@##@@+##+O+",
"++#++@@o+@@++XXXXX#++@@o+@@+++@o",
"O##O$@+@OOO+$.....#O$@+@OOO+$OO@",
"O#@+OOo++@OOO.....@+OOo++@OOOOo+",
"O+O@+OO@O+##+.....O@+OO@O+##+O@@",
"+@+O@@+@+@+##.....+O@@+@+@+##@+@",
"+@Oo++##+@##+.....Oo++##+@##++O+",
"$+OO###+$O+++.....OO###+$O+++OOO",
"@+O@O@@OOO+@@.....O@O@@OOO+@@+O+",
"++#OOO@o+O#O+.....#OOO@o+O#O++@o",
"++OO$@+@++OO$.....OO$@+@++OO$O+@",
"+#@OOOo+###+O.....@OOOo+###+OOoO",
"O+O##O@@O#@@+.....O##O@@O#@@+OO@",
"+@++#@+@+@@+@.....++#@+@+@@+@@+#",
"+@Oo++#+OO+o+.....Oo++#+OO+o+O##",
"$OOO+##O$OO+#.....OO+##O$OO+#OOO",
"@O+@@@##@@+##.....+@@@##@@+##+O+",
"++#++@@o+@@++.....#++@@o+@@+++@o",
"O##O$@+@OOO+$     #O$@+@OOO+$OO@",
"O#@+OOo++@OOOOo+O#@+OOo++@OOOOo+",
"O+O@+OO@O+##+O@@O+O@+OO@O+##+O@@",
"+@+O@@+@+@+##@+@+@+O@@+@+@+##@+@",
"+@Oo++##+@##++O++@Oo++##+@##++O+",
"$+OO###+$O+++OOO$+OO###+$O+++OOO",
"@+O@O@@OOO+@@+O+@+O@O@@OOO+@@+O+",
"++#OOO@o+O#O++@o++#OOO@o+O#O++@o"
};
