/* XPM */
static char *coin_51699283834[] = {
/* columns rows colors chars-per-pixel */
"32 32 9 1 ",
"  c #FFAE00",
". c #FFD800",
"X c #FFF000",
"o c #A49D74",
"O c #BBB386",
"+ c #C5BD8E",
"@ c #CDC391",
"# c #DED498",
"$ c #DAD4B6",
/* pixels */
"++OO$@+@++OO$O+@++OO$@+@++OO$O+@",
"+#@OOOo+###+OOoO+#@OOOo+###+OOoO",
"O+O##O@@O#@@+OO@O+O##O@@O#@@+OO@",
"+@++#@+@+@@+@@+#+@++#@+@+@@+@@+#",
"+@Oo++#+OO+o+O##+@Oo++#+OO+o+O##",
"$OOO+##O$OO+#OOO$OOO+##O$OO+#OOO",
"@O+@@@##@@+##+O+@O+@@@##@@+##+O+",
"++#++@@o+@@++XXXXX#++@@o+@@+++@o",
"O##O$@+@OOOXX.......$@+@OOO+$OO@",
"O#@+OOo++@OXX.......OOo++@OOOOo+",
"O+O@+OO@O+#..  .....+OO@O+##+O@@",
"+@+O@@+@+@+..  .....@@+@+@+##@+@",
"+@Oo++##+@#..  .....++##+@##++O+",
"$+OO###+$O+..  .....###+$O+++OOO",
"@+O@O@@OOO+..  .....O@@OOO+@@+O+",
"++#OOO@o+O#..  .....OO@o+O#O++@o",
"++OO$@+@++O..  .....$@+@++OO$O+@",
"+#@OOOo+###..  .....OOo+###+OOoO",
"O+O##O@@O#@..  .....#O@@O#@@+OO@",
"+@++#@+@+@@..  .....#@+@+@@+@@+#",
"+@Oo++#+OO+..  .....++#+OO+o+O##",
"$OOO+##O$OO..  .....+##O$OO+#OOO",
"@O+@@@##@@+.......  @@##@@+##+O+",
"++#++@@o+@@.......  +@@o+@@+++@o",
"O##O$@+@OOO+$     #O$@+@OOO+$OO@",
"O#@+OOo++@OOOOo+O#@+OOo++@OOOOo+",
"O+O@+OO@O+##+O@@O+O@+OO@O+##+O@@",
"+@+O@@+@+@+##@+@+@+O@@+@+@+##@+@",
"+@Oo++##+@##++O++@Oo++##+@##++O+",
"$+OO###+$O+++OOO$+OO###+$O+++OOO",
"@+O@O@@OOO+@@+O+@+O@O@@OOO+@@+O+",
"++#OOO@o+O#O++@o++#OOO@o+O#O++@o"
};
