/* XPM */
static char *coin_01699283833[] = {
/* columns rows colors chars-per-pixel */
"32 32 10 1 ",
"  c #FFAE00",
". c #FFD800",
"X c #FFF000",
"o c #A49D74",
"O c #BBB386",
"+ c #C5BD8E",
"@ c #CDC391",
"# c #DED498",
"$ c #DAD4B6",
"% c white",
/* pixels */
"++OO$@+@++OO$O+@++OO$@+@++OO$O+@",
"+#@OOOo+###+OOoO+#@OOOo+###+OOoO",
"O+O##O@@O#@@+OO@O+O##O@@O#@@+OO@",
"+@++#@+@+@@+@@+#+@++#@+@+@@+@@+#",
"+@Oo++#+OO+o+O##+@Oo++#+OO+o+O##",
"$OOO+##O$OO+#OOO$OOO+##O$OO+#OOO",
"@O+@@@##@@+##+O+@O+@@@##@@+##+O+",
"++#++@@o+@XXXXXXXXXXX@@o+@@+++@o",
"O##O$@+@OX............+@OOO+$OO@",
"O#@+OOo++X............o++@OOOOo+",
"O+O@+OOXX...%%     .....O+##+O@@",
"+@+O@@+XX...%%     .....+@+##@+@",
"+@Oo++#...%%%%%....XX...+@##++O+",
"$+OO###...  %%.....XX...$O+++OOO",
"@+O@O@@...  %%.....XX...OO+@@+O+",
"++#OOO@...  .......XX...+O#O++@o",
"++OO$@+...  .......XX...++OO$O+@",
"+#@OOOo...  .......XX...###+OOoO",
"O+O##O@...  .......XX...O#@@+OO@",
"+@++#@+...  .......XX...+@@+@@+#",
"+@Oo++#.....XXXXXXX...  OO+o+O##",
"$OOO+##.....XXXXXXX...  $OO+#OOO",
"@O+@@@##@............ ##@@+##+O+",
"++#++@@o+............ @o+@@+++@o",
"O##O$@+@OO           @+@OOO+$OO@",
"O#@+OOo++@OOOOo+O#@+OOo++@OOOOo+",
"O+O@+OO@O+##+O@@O+O@+OO@O+##+O@@",
"+@+O@@+@+@+##@+@+@+O@@+@+@+##@+@",
"+@Oo++##+@##++O++@Oo++##+@##++O+",
"$+OO###+$O+++OOO$+OO###+$O+++OOO",
"@+O@O@@OOO+@@+O+@+O@O@@OOO+@@+O+",
"++#OOO@o+O#O++@o++#OOO@o+O#O++@o"
};
