/* XPM */
static char *result[] = {
/* columns rows colors chars-per-pixel */
"32 32 21 1 ",
"  c #1D131E",
". c #1E1420",
"X c #2E2533",
"o c #3D3748",
"O c #4D4A5D",
"+ c #5E5252",
"@ c #7E7068",
"# c #726B7E",
"$ c #736C7E",
"% c #867E7F",
"& c #A49D74",
"* c #B19998",
"= c #BBB386",
"- c #A8B3B8",
"; c #C5BD8E",
": c #C4B59F",
"> c #CDC391",
", c #DED498",
"< c #DAD4B6",
"1 c #E5E6C7",
"2 c white",
/* pixels */
";;==<>;>;;==<=;>;;==<>;>;;==<=;>",
";,>===&;,,,;==&=;,>===&;,,,;==&=",
"=;=,,=>>=,>>;==>=;=,,=>>=,>>;==>",
";>;;,>;>;>>;>>;,;>;;,>;>;>>;>>;,",
";>=&;;,;==;&;=,,;>=&;;,;==;&;=,,",
"<===;,,=<==;,===<===;,,=<==;,===",
">=;>>>,,>>;,,;=;>=;>>>,,>>;,,;=;",
";;,;;>>&;>>;;;1:*%,;;>>&;>>;;;>&",
"=,,=<>;>===; 1+*-%O <>;>===;<==>",
"=,>;==&;;>==@#:1:%#O==&;;>====&;",
"=;=>;==>=;, %+**%%#O ==>=;,,;=>>",
";>;=>>;>;>;#%###@#+OX>;>;>;,,>;>",
";>=&;;,,;>,121:- +OoX;,,;>,,;;=;",
"<;==,,,;<= #1%%%@ :%X,,;<=;;;===",
">;=>=>>===      @%oo >>===;>>;=;",
";;,===>&;= -1--%O ##==>&;=,=;;>&",
";;==<>;>;;=O###O X  <>;>;;==<=;>",
";,>===&;,,,;    . -:O=&;,,,;==&=",
"=;=,,=>>=,>>#$%#%#*%# >>=,>>;==>",
";>;;,>;>;>>;@%*%%O#OX ;>;>>;>>;,",
";>=&;;,;==;&@%%%#O+ O ,;==;&;=,,",
"<===;,,=<==;##%%+OX*% ,=<==;,===",
">=;>>>,,>>;, #%#O  #O>,,>>;,,;=;",
";;,;;>>&;>>;;XOOXO1O >>&;>>;;;>&",
"=,,=<>;>===;< %%O %O<>;>===;<==>",
"=,>;==&;;>== : *O  ;==&;;>====&;",
"=;=>;==>=;,, -O  O >;==>=;,,;=>>",
";>;=>>;>;>;,,  XO#X=>>;>;>;,,>;>",
";>=&;;,,;>,,; XX #X&;;,,;>,,;;=;",
"<;==,,,;<=;; OO%%X+ ,,,;<=;;;===",
">;=>=>>===;>>;     >=>>===;>>;=;",
";;,===>&;=,=;;>&;;,===>&;=,=;;>&"
};
