/* XPM */
static char *result[] = {
/* columns rows colors chars-per-pixel */
"32 32 18 1 ",
"  c #1D131E",
". c #2E2533",
"X c #3D3748",
"o c #4D4A5D",
"O c #5E5252",
"+ c #726B7E",
"@ c #867E7F",
"# c #A49D74",
"$ c #B19998",
"% c #BBB386",
"& c #A8B3B8",
"* c #C5BD8E",
"= c #C4B59F",
"- c #CDC391",
"; c #DED498",
": c #DAD4B6",
"> c #E5E6C7",
", c white",
/* pixels */
"**%%:-*-**%%:%*-**%%:-*-**%%:%*-",
"*;-%%%#*;;;*%%#%*;-%%%#*;;;*%%#%",
"%*%;;%--%;--*%%-%*%;;%--%;--*%%-",
"*-**;-*-*--*--*;*-**;-*-*--*--*;",
"*-%#**;*%%*#*%;;*-%#**;*%%*#*%;;",
":%%%*;;%:%%*;%%%:%%%*;;%:%%*;%%%",
"-%*---;;--*;;*% -%*---;;--*;;*%*",
"**;**--#*--**  &. ;**--#*--***-#",
"%;;%:-*-%%%*o&@>.+o :-*-%%%*:%%-",
"%;-*%%#**-% @,&,o@+X%%#**-%%%%#*",
"%*%-*%%-%*;o&,$&O@+o %%-%*;;*%--",
"*-*%--*-*-*.@>@@@+OX -*-*-*;;-*-",
"*-%#**;;*- .       .+*;;*-;;**%*",
":*%%;;;*:% @@@&@@@+O ;;*:%***%%%",
"-*%-%--%%% o@&,>&&$+ --%%%*--*%*",
"**;%%%-#*%; +o    @o%%-#*%;%**-#",
"**%%:-*-* &o +&@@@. + *-**%%:%*-",
"*;-%%%#*;+,@  ... .@,@ *;;;*%%#%",
"%*%;;%-- +$> ,@@@&@o$@.-%;--*%%-",
"*-**;-*-  oo @=>$@@XoX -*--*--*;",
"*-%#**;* + .@@@=@@+. o@*%%*#*%;;",
":%%%*;;% o  +@@@@+o.*@ %:%%*;%%%",
"-%*---;; >+ .+@@@+.  $o;--*;;*%*",
"**;**--# @..@ o+o. . >O#*--***-#",
"%;;%:-*-%Oo =@ . @=oO+ -%%%*:%%-",
"%;-*%%#**-%.>@ * @>.%%#**-%%%%#*",
"%*%-*%%-%*; &. - .@ *%%-%*;;*%--",
"*-*%--*-*-*  .*-*.  --*-*-*;;-*-",
"*-%#**;;*-;@.+ * +.+ *;;*-;;**%*",
":*%%;;;*:% @>. % o&@ ;;*:%***%%%",
"-*%-%--%%%*.o %*- o.%--%%%*--*%*",
"**;%%%-#*%;% *-#** %%%-#*%;%**-#"
};
