/* XPM */
static char *result[] = {
/* columns rows colors chars-per-pixel */
"32 32 19 1 ",
"  c #1D131E",
". c #281820",
"X c #2E2533",
"o c #3D3748",
"O c #4D4A5D",
"+ c #5E5252",
"@ c #726B7E",
"# c #867E7F",
"$ c #A49D74",
"% c #B19998",
"& c #BBB386",
"* c #A8B3B8",
"= c #C5BD8E",
"- c #C4B59F",
"; c #CDC391",
": c #DED498",
"> c #DAD4B6",
", c #E5E6C7",
"< c white",
/* pixels */
"==&&>;=;==&&>&=;==&&>;=;==&&>&=;",
"=:;&&&$=:::=&&$&=:;&&&$=:::=&&$&",
"&=&::&;;&:;;=&&;&=&::&;;&:;;=&&;",
"=;==:;=;=;;=;;=:=;==:;=;=;;=;;=:",
"=;&$==:=&&=$=&::=;&$==:=&&=$=&::",
">&&&=::&>&&=:&&&>&&&=::&>&&=:&&&",
";&=;;;::;;=::=& ;&=;;;::;;=::=&=",
"==:==;;$=;;==  *X :==;;$=;;===;$",
"&::&>;=;&&&=O*#,X@O >;=;&&&=>&&;",
"&:;=&&$==;& #<*<O@+o&&$==;&&&&$=",
"&=&;=&&;&=:O*<%,+#+O &&;&=::=&;;",
"=;=&;;=;=;=o#,#*+#@O ;=;=;=::;=;",
"=;&$==::=; X###%+#@O#=::=;::==&=",
">=&&:::=>& X@###+@+oX::=>&===&&&",
";=&;&;;&&&= oO@@@OoX ;;&&&=;;=&=",
"==:&&&;$=&:  XXooXX &&;$=&:&==;$",
"==&&>;=;= *OOOooooO @ =;==&&>&=;",
"=:;&&&$=:@<#  %*#@ #<# =:::=&&$&",
"&=&::&;; @%, %@@@##O%#X;&:;;=&&;",
"=;==:;=;  OO ,@%##%oOo ;=;;=;;=:",
"=;&$==:= @  @O@-###X O#=&&=$=&::",
">&&&=::& *  O@###@XX.-#&>&&=:&&&",
";&=;;;:: ,X XO@##OX  *#:;;=::=&=",
"==:==;;$ +# @ OOOX X##O$=;;===;$",
"&::&>;=;&   #%@X #-O  =;&&&=>&&;",
"&:;=&&$==;& *#O= #,X&&$==;&&&&$=",
"&=&;=&&;&=::X@ ;&X# =&&;&=::=&;;",
"=;=&;;=;=;=X   ;=X   ;=;=;=::;=;",
"=;&$==::=;:O%% ==#,O =::=;::==&=",
">=&&:::=>&= ## &>X%X:::=>&===&&&",
";=&;&;;&&&=;;=&=;=&;&;;&&&=;;=&=",
"==:&&&;$=&:&==;$==:&&&;$=&:&==;$"
};
