/* XPM */
static char *result[] = {
/* columns rows colors chars-per-pixel */
"32 32 22 1 ",
"  c #1D131E",
". c #2E2533",
"X c #3D3748",
"o c #4B444C",
"O c #4D4A5D",
"+ c #5E5252",
"@ c #7E7068",
"# c #726B7E",
"$ c #736C7E",
"% c #80787B",
"& c #867E7F",
"* c #A49D74",
"= c #B19998",
"- c #BBB386",
"; c #A8B3B8",
": c #C5BD8E",
"> c #C4B59F",
", c #CDC391",
"< c #DED498",
"1 c #DAD4B6",
"2 c #E5E6C7",
"3 c white",
/* pixels */
"::--1,:,::--1-:,::--1,:,::--1-:,",
":<,---*:<<<:--*-:<,---*:<<<:--*-",
"-:-<<-,,-<,,:--,-:-<<-,,-<,,:--,",
":,::<,:,:,,:,,:<:,::<,:,:,,:,,:<",
":,-*::<:--:*:-<<:,-*::<:--:*:-<<",
"1---:<<-1--:<---1---:<<-1--:<---",
",-:,,,<<,,:<<:-:,-:,,,<<,,:<<:-:",
"::<::,,*:,,:: =>> <::,,*:,,:::,*",
"-<<-1,:,---:X+>>O#o-1,:,---:1--,",
"-<,:--*::,- +@=>3+> --*::,----*:",
"-:-,:--,-:<X+@&&>#=#:--,-:<<:-,,",
":,:-,,:,:, X+#@###&@ ,:,:,:<<,:,",
":,-*::<<:, XO+O=;>23 :<<:,<<::-:",
"1:--<<<:1- O2 O#&&&;#<<:1-:::---",
",:-,-,,---:@&&#O     ,,---:,,:-:",
"::<---,*:-< & .#&;>>O-,*:-<-::,*",
"::--1,:,::-   #.#### ,:,::--1-:,",
":<,---*:<< =2O     ---*:<<<:--*-",
"-:-<<-,,-<O&;& %#&= <-,,-<,,:--,",
":,::<,:,:, O## &=;2 <,:,:,,:,,:<",
":,-*::<:--.# .+&&&= ::<:--:*:-<<",
"1---:<<-1-O2 .O#&&& :<<-1--:<---",
",-:,,,<<,, &  .+&&$,,,<<,,:<<:-:",
"::<::,,*:,, &= .+O ::,,*:,,:::,*",
"-<<-1,:,--- ## #>#<-1,:,---:1--,",
"-<,:--*::,--  .#;+O:--*::,----*:",
"-:-,:--,-:<<:O.  &+,:--,-:<<:-,,",
":,:-,,:,:,:< #;    -,,:,:,:<<,:,",
":,-*::<<:,<< OO...-*::<<:,<<::-:",
"1:--<<<:1-::O#O2 O.-<<<:1-:::---",
",:-,-,,---:,     :-,-,,---:,,:-:",
"::<---,*:-<-::,*::<---,*:-<-::,*"
};
