/* XPM */
static char *skeleton_bottom_1_png__3_1699288859[] = {
/* columns rows colors chars-per-pixel */
"32 32 15 1 ",
"  c #1D131E",
". c #2E2533",
"X c #3D3748",
"o c #4D4A5D",
"O c #726B7E",
"+ c #A49D74",
"@ c #B19998",
"# c #BBB386",
"$ c #C5BD8E",
"% c #C4B59F",
"& c #CDC391",
"* c #DED498",
"= c #DAD4B6",
"- c #E5E6C7",
"; c white",
/* pixels */
"$$##=&$&$$##=#$&$$##=&$&$$##=#$&",
"$*&###+$***$##+#$*&###+$***$##+#",
"#$#**#&&#*&&$##&#$#**#&&#*&&$##&",
"$&$$*&$&$&&$&&$*$&$$*&$&$&&$&&$*",
"$&#+$$*$##$+$#**$&#+$$*$##$+$#**",
"=###$**#=##$*###=###$**#=##$*###",
"&#$&&&**&&$**$#$&#$&&&**&&$**$#$",
"$$*$$&&+$&&$$     *$$&&+$&&$$$&+",
"#**#=&$&###$@%---%@#=&$&###$=##&",
"#*&$##+$$&# --;;;;- ##+$$&####+$",
"#$#&$##&#$*@--;;;;-%$##&#$**$#&&",
"$&$#&&$&$&$@%--;;;-%&&$&$&$**&$&",
"$&#+$$**$&*O%--%---@$$**$&**$$#$",
"=$##***$=#$o@%%@%--o***$=#$$$###",
"&$#&#&&###$ O-O % % #&&###$&&$#$",
"$$*###&+$#*# O-;@O% ##&+$#*#$$&+",
"$$##=&$&$$## @  %%-#=&$&$$##=#$&",
"$*&###+$***OOX O%o% ##+$***$##+#",
"#$#**#&&#*&@O o%o;- *#&&#*&&$##&",
"$&$$*&$&$&&%%O%;oo- *&$&$&&$&&$*",
"$&#+$$*$## ; X%oo%- $$*$##$+$#**",
"=###$**#=# o X-oo%  $**#=##$*###",
"&#$&&&**&& ;  -oO o-&&**&&$**$#$",
"$$*$$&&+$&&o;;@-%@ O$&&+$&&$$$&+",
"#**#=&$&### o%;@ @ #=&$&###$=##&",
"#*&$##+$$&### ;oo% $##+$$&####+$",
"#$#&$##&#$**$%% %@#&$##&#$**$#&&",
"$&$#&&$&$&$**;;&%. #&&$&$&$**&$&",
"$&#+$$**$&** @- %---$$**$&**$$#$",
"=$##***$=#$$ ---    ***$=#$$$###",
"&$#&#&&###$&&   &$#&#&&###$&&$#$",
"$$*###&+$#*#$$&+$$*###&+$#*#$$&+"
};
