/* XPM */
static char *skeleton_bottom_1_png__4_1699288859[] = {
/* columns rows colors chars-per-pixel */
"32 32 19 1 ",
"  c #150D15",
". c #1D131E",
"X c #2E2533",
"o c #3D3748",
"O c #4D4A5D",
"+ c #726B7E",
"@ c #8D8272",
"# c #A49D74",
"$ c #B19998",
"% c #BBB386",
"& c #A8A992",
"* c #C5BD8E",
"= c #C4B59F",
"- c #CDC391",
"; c #DED498",
": c #DAD4B6",
"> c #E2E3C4",
", c #E5E6C7",
"< c white",
/* pixels */
"**%%:-*-**%%:%*-**%%:-*-**%%:%*-",
"*;-%%%#*;;;*%%#%*;-%%%#*;;;*%%#%",
"%*%;;%--%;--*%%-%*%;;%--%;--*%%-",
"*-**;-*-*--*--*;*-**;-*-*--*--*;",
"*-%#**;*%%*#*%;;*-%#**;*%%*#*%;;",
":%%%*;;%:%%*;%%%:%%%*;;%:%%*;%%%",
"-%*---;;--*;;*%*-%*---;;--*;;*%*",
"**;**--#*--**.....;**--#*--***-#",
"%;;%:-*-%%%*$=,,,,=.:-*-%%%*:%%-",
"%;-*%%#**-%.,,<<<,,=%%#**-%%%%#*",
"%*%-*%%-%*;$,<<<<<,=.%%-%*;;*%--",
"*-*%--*-*-*$,<<<<<,=.-*-*-*;;-*-",
"*-%#**;;*-;$$,<<<,,=.*;;*-;;**%*",
":*%%;;;*:%*O$<<,<<O$.;;*:%***%%%",
"-*%-%--%%%*.o.+,,.<O%--%%%*--*%*",
"**;%%%-#*%;%.$O.=+$%%%-#*%;%**-#",
"**%%:-*-**<$++,<,$.,,.*-**%%:%*-",
"*;-%%%#*;.<XX.....+X<O#*;;;*%%#%",
"%*%;;%--%...XO,<+,OX.>--%;--*%%-",
"*-**;-*-*& .$<,<O<O+;@.-*--*--*;",
"*-%#**;*%=..$<,<O<OX*$.*%%*#*%;;",
":%%%*;;%:<.*+,$.O,$.*$.%:%%*;%%%",
"-%*---;;-OO.$$++.$X=.O.;--*;;*%*",
"**;**--#.<O.,o...O$.,<,#*--***-#",
"%;;%:-*-%$,.,<X+o.,.$O.-%%%*:%%-",
"%;-*%%#**-%%.+.*%.+X%%#**-%%%%#*",
"%*%-*%%-%*;;+=.-%.=+*%%-%*;;*%--",
"*-*%--*-*-*;,,*-*-,,--*-*-*;;-*-",
"*-%#**;;*-;.$$.**.$$.*;;*-;;**%*",
":*%%;;;*:%*$==+%:+==$;;*:%***%%%",
"-*%-%--%%%*...%*-*...--%%%*--*%*",
"**;%%%-#*%;%**-#**;%%%-#*%;%**-#"
};
