/* XPM */
static char *skeleton_bottom_1_png__1_1699288858[] = {
/* columns rows colors chars-per-pixel */
"32 32 15 1 ",
"  c #1D131E",
". c #2E2533",
"X c #3D3748",
"o c #4D4A5D",
"O c #726B7E",
"+ c #A49D74",
"@ c #B19998",
"# c #BBB386",
"$ c #C5BD8E",
"% c #C4B59F",
"& c #CDC391",
"* c #DED498",
"= c #DAD4B6",
"- c #E5E6C7",
"; c white",
/* pixels */
"$$##=&$&$$##=#$&$$##=&$&$$##=#$&",
"$*&###+$***$##+#$*&###+$***$##+#",
"#$#**#&&#*&&$##&#$#**#&&#*&&$##&",
"$&$$*&$&$&&$&&$*$&$$*&$&$&&$&&$*",
"$&#+$$*$##$+$#**$&#+$$*$##$+$#**",
"=###$**#=##$*###=###$**#=##$*###",
"&#$&&&**&&$**$#$&#$&&&**&&$**$#$",
"$$*$$&&+$&&$$     *$$&&+$&&$$$&+",
"#**#=&$&###$@-----% =&$&###$=##&",
"#*&$##+$$&# --;;;;-%##+$$&####+$",
"#$#&$##&#$*@-;;;;;-% ##&#$**$#&&",
"$&$#&&$&$&$@-;;;;;-% &$&$&$**&$&",
"$&#+$$**$&*@--;;;;-% $**$&**$$#$",
"=$##***$=#$O%-----%@ **$=#$$$###",
"&$#&#&&###$ O%%%-%@o#&&###$&&$#$",
"$$*###&+$#*#oOOOOOo ##&+$#*#$$&+",
"$$##=&$&$$%%@  -o O%- $&$$##=#$&",
"$*&###+$* - ooO@OOo -%+$***$##+#",
"#$#**#&&#;-%;;%@-o;-O- &#*&&$##&",
"$&$$*&$&$..O@-%@-o%@o%$&$&&$&&$*",
"$&#+$$*$#OO oO%@-.O  - $##$+$#**",
"=###$**#=@%$@.%%-@O  O #=##$*###",
"&#$&&&** ;O %;.%@.;o %@*&&$**$#$",
"$$*$$&&+ %%  %@;-@ @ XO+$&&$$$&+",
"#**#=&$&#   -Xoo O@O  $&###$=##&",
"#*&$##+$$&##;- $#X% ##+$$&####+$",
"#$#&$##&#$**XO &# - $##&#$**$#&&",
"$&$#&&$&$&$@ o &$@-o &$&$&$**&$&",
"$&#+$$**$&*@.% $$OO- $**$&**$$#$",
"=$##***$=#$ X@ #=O-@***$=#$$$###",
"&$#&#&&###$&&$#$&$#&#&&###$&&$#$",
"$$*###&+$#*#$$&+$$*###&+$#*#$$&+"
};
