/* XPM */
static char *d689424a219f44a9c144091e65317e54q8LOGRF3GoYM2mG1[] = {
/* columns rows colors chars-per-pixel */
"32 32 43 1 ",
"  c #754C3B",
". c #754D3C",
"X c #76503F",
"o c #373546",
"O c #383546",
"+ c #383748",
"@ c #3A3849",
"# c #3D3F4F",
"$ c #3E3F50",
"% c #4E3F45",
"& c #403A4E",
"* c #36414F",
"= c #354754",
"- c #5E4643",
"; c #424152",
": c #444354",
"> c #4E445A",
", c #474E5D",
"< c #674A43",
"1 c #775140",
"2 c #785343",
"3 c #795747",
"4 c #7A5949",
"5 c #4D4F61",
"6 c #514C61",
"7 c #495160",
"8 c #4F5367",
"9 c #535165",
"0 c #525569",
"q c #54576B",
"w c #525A6F",
"e c #55596D",
"r c #56686F",
"t c #576072",
"y c #586274",
"u c #57687B",
"i c #A49D74",
"p c #5B6C82",
"a c #BBB386",
"s c #C5BD8E",
"d c #CDC391",
"f c #DED498",
"g c #DAD4B6",
/* pixels */
"srrrrdsdssaagasdssaagdsdssarrrrd",
"so,o========================o,oa",
"aoyoyyyyyyyyyyyyyyyyyyyyyyyyoyod",
"soyooooooooooooooooooooooooooyof",
"roto      .    o  .         otor",
"r>#&O44 4444444o14444444444O&#>r",
"r,o5 4444444444o14444444444 5o,r",
"r9o@-4444444444o34444444444-@o9r",
"r,>,o4444444444o 44.4444444o,>,r",
"aoyo 4444444444o4444  44444 oyos",
"aoyo  444444444o4444444444  oyod",
"soyo 44 4444444o44444444444 oyod",
"soyo 44.4444442o44444444444 oyos",
"goyo 44.4444444o44444444444 oyoa",
"doyo 4444<uee0Xo.8eew.44444 oyos",
"soyo 4444<e:5e4o4e5;e 44444 oyoi",
"soyo 44 4<e55e4o e55e 44444 oyod",
"soyo 4444<p0eq4o40e0w 44444 oyoa",
"aoyo 4444444444o44444444444 oyod",
"soyo 4444444444o 444444 444 oyof",
"soyo 4444444444o444444 4444 oyof",
"roooO4444444443o 1444.44444Oooor",
"r7o@ 44 4444444o 44444 4444 @o7r",
"r,o5 4444444444o  4444 4444 5o,r",
"r6oo 4444444444o 44444 4444 oo6r",
"r+$+%4444444444o 4444444444%+$+r",
"aoyo 4444444444o 4444444444 oyod",
"soyo           o            oyod",
"soyooooooooooooooooooooooooooyos",
"goyoyyyyyyyyyyyyyyyyyyyyyyyyoyoa",
"do,o************************o,os",
"srrrradisafassdissfaaadisafrrrri"
};
