/* XPM */
static char *Textures_16__5___4__1_png1699564552[] = {
/* columns rows colors chars-per-pixel */
"32 32 36 1 ",
"  c #1E242F",
". c #1F2530",
"X c #212630",
"o c #202631",
"O c #212733",
"+ c #232732",
"@ c #262933",
"# c #232A35",
"$ c #242A36",
"% c #2A2B35",
"& c #2B2C36",
"* c #282A38",
"= c #2E2E38",
"- c #303743",
"; c #373640",
": c #373546",
"> c #383748",
", c #353D4B",
"< c #3D3F4F",
"1 c #36414F",
"2 c #354754",
"3 c #4E445A",
"4 c #474E5D",
"5 c #474F5E",
"6 c #514C61",
"7 c #495160",
"8 c #535165",
"9 c #56686F",
"0 c #576072",
"q c #586274",
"w c #A49D74",
"e c #BBB386",
"r c #C5BD8E",
"t c #CDC391",
"y c #DED498",
"u c #DAD4B6",
/* pixels */
"r9999trtrreeuertrreeutrtrre9999t",
"r:4:222222222222222222222222:4:e",
"e:qo#########################$:t",
"r:q                         ..:y",
"9:0                         ..:9",
"93<                          .39",
"94:                          #59",
"98:                          o89",
"943.                         o49",
"e:q.                         .>r",
"e:q                         .o:t",
"r:q                         .o:t",
"r:q                         .o:r",
"u:q                         ..:e",
"t:q                         .#:r",
"r:q                         .o:w",
"t>8         XXXX.XXXX        o:t",
"r:qX      @@@@@@$@@@@@@      o:e",
"e;9X      @@@@$@@@@@@@@X    oo:t",
"r:9      %%%%%%&%%%%%%%%    Xo:y",
"r:qX   X &&%%%&&%%%%%%%% o   o:y",
"9::    XX%&&==&&%%&&&&&&oo    :9",
"97:   X===&===============  oO79",
"94:    ===================   O49",
"96:o oo===================%XXX69",
"9>1  =;;;;;;;;;;;;;;;;;;>=;; X:9",
"e:q o;;;;;;;;;;;;;;;;;;;=;;;o+:t",
"r:q X;;;;;;;;;;;;;;;;;;;>;;; o:t",
"r:q  ;;;=;;=;=;=;=1===<===>= o:r",
"u:q&,,,,111131113=13,,11411,,-:e",
"t:5:1,,211141111121111111111:4:r",
"r999qetwywywrrtwttyweetwrey9999w"
};
