/* XPM */
static char *db5cd2a24c1746aa824e3dec3892f2c2TXmi88p62xLtCLSv[] = {
/* columns rows colors chars-per-pixel */
"32 32 4 1 ",
"  c #262B44",
". c #3A4466",
"X c #5A6988",
"o c #8B9BB4",
/* pixels */
"ooo. ooXXooooXXoooo. ooXXooooXXo",
"XXXo.XXXXXXXXXoXXXXo.XXXXXXXXXoX",
"XXXo.XXXXXXXXXXXXXXo.XXXXXXXXXXX",
"XXXoX.XXXXXXXXXXXXXoX.XXXXXXXXXX",
"XXXX.XXXXX.XXXXXXXXX.XXXXX.XXXXX",
"XXXo..XX..XXX.XoXXXo..XX..XXX.Xo",
".X.. ...XX...X...X.. ...XX...X..",
"                                ",
"ooooooooX. .ooXXooooooooX. .ooXX",
"XXXXXXXXoX..XXooXXXXXXXXoX..XXoo",
"XXXXXXXXXo .XXXXXXXXXXXXXo .XXXX",
"XXXXXXXXXo X.XXXXXXXXXXXXo X.XXX",
"XXXXXXXXXX..XX.XXXXXXXXXXX..XX.X",
".XXX.XXXXo ..XX..XXX.XXXXo ..XX.",
"X.X.X.....  ...XX.X.X.....  ...X",
"                                ",
"ooo. ooXXooooXXoooo. ooXXooooXXo",
"XXXo.XXXXXXXXXoXXXXo.XXXXXXXXXoX",
"XXXo.XXXXXXXXXXXXXXo.XXXXXXXXXXX",
"XXXoX.XXXXXXXXXXXXXoX.XXXXXXXXXX",
"XXXX.XXXXX.XXXXXXXXX.XXXXX.XXXXX",
"XXXo..XX..XXX.XoXXXo..XX..XXX.Xo",
".X.. ...XX...X...X.. ...XX...X..",
"                                ",
"ooooooooX. .ooXXooooooooX. .ooXX",
"XXXXXXXXoX..XXooXXXXXXXXoX..XXoo",
"XXXXXXXXXo .XXXXXXXXXXXXXo .XXXX",
"XXXXXXXXXo X.XXXXXXXXXXXXo X.XXX",
"XXXXXXXXXX..XX.XXXXXXXXXXX..XX.X",
".XXX.XXXXo ..XX..XXX.XXXXo ..XX.",
"X.X.X.....  ...XX.X.X.....  ...X",
"                                "
};
